<svg width="1440" height="679" viewBox="0 0 1440 679" fill="none" xmlns="http://www.w3.org/2000/svg">
<g style="mix-blend-mode:screen">
<rect x="961" y="272" width="92" height="92" stroke="white" stroke-opacity="0.2"/>
<rect x="1053" y="272" width="92" height="92" stroke="white" stroke-opacity="0.2"/>
<rect x="1053" y="364" width="92" height="92" stroke="white" stroke-opacity="0.2"/>
<rect x="1053" y="456" width="92" height="92" stroke="white" stroke-opacity="0.2"/>
<rect x="869" y="364" width="92" height="92" stroke="white" stroke-opacity="0.2"/>
<rect x="961" y="364" width="92" height="92" stroke="white" stroke-opacity="0.2"/>
<rect x="1145" y="364" width="92" height="92" stroke="white" stroke-opacity="0.2"/>
<rect x="961" y="180" width="92" height="92" stroke="white" stroke-opacity="0.2"/>
<rect x="1329" y="272" width="92" height="92" stroke="white" stroke-opacity="0.2"/>
<rect x="1237" y="272" width="92" height="92" stroke="white" stroke-opacity="0.2"/>
<rect x="1329" y="180" width="92" height="92" stroke="white" stroke-opacity="0.2"/>
<rect x="1329" y="88" width="92" height="92" stroke="white" stroke-opacity="0.2"/>
<rect x="1329" y="-4.00012" width="92" height="92" stroke="white" stroke-opacity="0.2"/>
<rect x="1145" y="272" width="92" height="92" stroke="white" stroke-opacity="0.2"/>
<rect x="1145" y="272" width="92" height="92" stroke="white" stroke-opacity="0.2"/>
<rect x="1237" y="456" width="92" height="92" stroke="white" stroke-opacity="0.2"/>
<rect x="1237" y="548" width="92" height="92" stroke="white" stroke-opacity="0.2"/>
<rect x="1053" y="548" width="92" height="92" stroke="white" stroke-opacity="0.2"/>
<rect x="1329" y="456" width="92" height="92" stroke="white" stroke-opacity="0.2"/>
<rect x="1329" y="364" width="92" height="92" stroke="white" stroke-opacity="0.2"/>
<rect x="1237" y="88" width="92" height="92" stroke="white" stroke-opacity="0.2"/>
<rect x="1145" y="180" width="92" height="92" stroke="white" stroke-opacity="0.2"/>
<rect x="1145" y="88" width="92" height="92" stroke="white" stroke-opacity="0.2"/>
</g>
<g style="mix-blend-mode:screen">
<rect x="27" y="218" width="92" height="92" transform="rotate(90 27 218)" stroke="white" stroke-opacity="0.2"/>
<rect x="27" y="310" width="92" height="92" transform="rotate(90 27 310)" stroke="white" stroke-opacity="0.2"/>
<rect x="119" y="218" width="92" height="92" transform="rotate(90 119 218)" stroke="white" stroke-opacity="0.2"/>
<rect x="27" y="586" width="92" height="92" transform="rotate(90 27 586)" stroke="white" stroke-opacity="0.2"/>
<rect x="27" y="494" width="92" height="92" transform="rotate(90 27 494)" stroke="white" stroke-opacity="0.2"/>
<rect x="119" y="586" width="92" height="92" transform="rotate(90 119 586)" stroke="white" stroke-opacity="0.2"/>
<rect x="211" y="586" width="92" height="92" transform="rotate(90 211 586)" stroke="white" stroke-opacity="0.2"/>
<rect x="303" y="586" width="92" height="92" transform="rotate(90 303 586)" stroke="white" stroke-opacity="0.2"/>
<rect x="27" y="402" width="92" height="92" transform="rotate(90 27 402)" stroke="white" stroke-opacity="0.2"/>
<rect x="27" y="402" width="92" height="92" transform="rotate(90 27 402)" stroke="white" stroke-opacity="0.2"/>
<rect x="211" y="494" width="92" height="92" transform="rotate(90 211 494)" stroke="white" stroke-opacity="0.2"/>
<rect x="395" y="586" width="92" height="92" transform="rotate(90 395 586)" stroke="white" stroke-opacity="0.2"/>
<rect x="119" y="402" width="92" height="92" transform="rotate(90 119 402)" stroke="white" stroke-opacity="0.2"/>
<rect x="211" y="402" width="92" height="92" transform="rotate(90 211 402)" stroke="white" stroke-opacity="0.2"/>
</g>
</svg>
