<svg width="152" height="32" viewBox="0 0 152 32" fill="none" xmlns="http://www.w3.org/2000/svg">
<path d="M4.368 25V8.2H13.536C14.944 8.2 16.12 8.368 17.064 8.704C18.008 9.024 18.72 9.496 19.2 10.12C19.68 10.744 19.92 11.512 19.92 12.424C19.92 13.304 19.624 14.072 19.032 14.728C18.44 15.368 17.576 15.824 16.44 16.096L16.608 15.64C17.328 15.8 18.008 16.056 18.648 16.408C19.288 16.76 19.808 17.24 20.208 17.848C20.608 18.44 20.808 19.176 20.808 20.056C20.808 21.032 20.608 21.84 20.208 22.48C19.824 23.12 19.304 23.624 18.648 23.992C18.008 24.36 17.296 24.624 16.512 24.784C15.728 24.928 14.944 25 14.16 25H4.368ZM6.96 22.504H14.256C15.024 22.504 15.696 22.416 16.272 22.24C16.864 22.064 17.328 21.792 17.664 21.424C18 21.04 18.168 20.568 18.168 20.008C18.168 19.368 17.96 18.872 17.544 18.52C17.128 18.168 16.608 17.92 15.984 17.776C15.36 17.616 14.744 17.536 14.136 17.536H6.96V22.504ZM6.96 15.016H14.016C14.592 15.016 15.128 14.928 15.624 14.752C16.12 14.576 16.512 14.32 16.8 13.984C17.104 13.648 17.256 13.256 17.256 12.808C17.256 12.04 16.912 11.496 16.224 11.176C15.552 10.856 14.72 10.696 13.728 10.696H6.96V15.016ZM36.2674 25.24C34.6034 25.24 33.1234 24.968 31.8274 24.424C30.5314 23.864 29.5154 23.104 28.7794 22.144C28.0594 21.168 27.6994 20.064 27.6994 18.832C27.6994 17.776 27.9154 16.84 28.3474 16.024C28.7954 15.192 29.4034 14.488 30.1714 13.912C30.9554 13.336 31.8514 12.896 32.8594 12.592C33.8674 12.272 34.9314 12.112 36.0514 12.112C37.1074 12.112 38.0994 12.264 39.0274 12.568C39.9554 12.856 40.7714 13.272 41.4754 13.816C42.1794 14.36 42.7234 15.008 43.1074 15.76C43.5074 16.496 43.6994 17.32 43.6834 18.232L43.6594 19.528H30.0034L29.4514 17.56H41.5234L41.1634 17.728V17.152C41.0834 16.608 40.7874 16.128 40.2754 15.712C39.7794 15.296 39.1554 14.976 38.4034 14.752C37.6674 14.512 36.8834 14.392 36.0514 14.392C34.9634 14.392 33.9714 14.528 33.0754 14.8C32.1794 15.072 31.4674 15.52 30.9394 16.144C30.4114 16.768 30.1474 17.608 30.1474 18.664C30.1474 19.528 30.4274 20.28 30.9874 20.92C31.5474 21.56 32.3234 22.056 33.3154 22.408C34.3074 22.76 35.4514 22.936 36.7474 22.936C38.0434 22.936 39.1154 22.768 39.9634 22.432C40.8114 22.096 41.4994 21.776 42.0274 21.472L43.1074 23.344C42.6274 23.664 42.0194 23.976 41.2834 24.28C40.5634 24.568 39.7714 24.8 38.9074 24.976C38.0434 25.152 37.1634 25.24 36.2674 25.24ZM53.1553 25V7.24H55.6273V25H53.1553ZM66.9178 25V12.4H69.4138V16.984L68.6938 16.84C68.9498 15.976 69.3738 15.192 69.9658 14.488C70.5578 13.768 71.2458 13.2 72.0298 12.784C72.8138 12.352 73.6218 12.136 74.4538 12.136C75.0458 12.136 75.6218 12.2 76.1818 12.328C76.7418 12.456 77.1818 12.632 77.5018 12.856L76.8538 15.4C76.5018 15.192 76.0618 15.032 75.5338 14.92C75.0218 14.792 74.5418 14.728 74.0938 14.728C73.3738 14.728 72.7258 14.848 72.1498 15.088C71.5738 15.328 71.0778 15.648 70.6618 16.048C70.2618 16.432 69.9498 16.864 69.7258 17.344C69.5178 17.808 69.4138 18.28 69.4138 18.76V25H66.9178ZM91.7638 25.24C90.6598 25.24 89.6838 24.984 88.8358 24.472C87.9878 23.944 87.3238 23.192 86.8438 22.216C86.3798 21.24 86.1478 20.08 86.1478 18.736V12.4H88.6198V17.824C88.6198 18.912 88.7638 19.824 89.0518 20.56C89.3398 21.296 89.7878 21.848 90.3958 22.216C91.0198 22.584 91.8118 22.768 92.7718 22.768C93.4278 22.768 94.0438 22.672 94.6198 22.48C95.2118 22.272 95.7318 21.976 96.1798 21.592C96.6278 21.192 96.9798 20.72 97.2358 20.176C97.4918 19.616 97.6198 18.992 97.6198 18.304V12.4H100.092V25H97.6198V22.36L98.0518 22.072C97.8438 22.552 97.4598 23.04 96.8998 23.536C96.3398 24.016 95.6278 24.424 94.7638 24.76C93.8998 25.08 92.8998 25.24 91.7638 25.24ZM110.663 25V12.4H113.159V16.048L112.223 15.856C112.367 15.504 112.623 15.12 112.991 14.704C113.359 14.272 113.831 13.872 114.407 13.504C114.999 13.12 115.679 12.808 116.447 12.568C117.215 12.312 118.063 12.184 118.991 12.184C119.871 12.184 120.679 12.328 121.415 12.616C122.151 12.904 122.751 13.344 123.215 13.936C123.679 14.512 123.943 15.248 124.007 16.144L123.143 15.952L123.311 15.544C123.519 15.256 123.823 14.92 124.223 14.536C124.623 14.152 125.103 13.784 125.663 13.432C126.239 13.08 126.871 12.784 127.559 12.544C128.263 12.304 129.007 12.184 129.791 12.184C131.183 12.184 132.271 12.432 133.055 12.928C133.855 13.424 134.423 14.088 134.759 14.92C135.095 15.752 135.263 16.672 135.263 17.68V25H132.767V18.064C132.767 17.36 132.655 16.736 132.431 16.192C132.207 15.648 131.847 15.224 131.351 14.92C130.855 14.616 130.207 14.464 129.407 14.464C128.671 14.464 127.983 14.584 127.343 14.824C126.719 15.048 126.167 15.368 125.687 15.784C125.207 16.184 124.831 16.656 124.559 17.2C124.303 17.728 124.175 18.296 124.175 18.904V25H121.679V18.016C121.679 17.312 121.543 16.696 121.271 16.168C121.015 15.64 120.599 15.224 120.023 14.92C119.447 14.616 118.695 14.464 117.767 14.464C117.095 14.464 116.479 14.592 115.919 14.848C115.359 15.088 114.871 15.408 114.455 15.808C114.039 16.208 113.719 16.64 113.495 17.104C113.271 17.552 113.159 17.976 113.159 18.376V25H110.663Z" fill="#F1F1F8"/>
</svg>
